<mxfile host="app.diagrams.net" modified="2022-01-15T16:11:45.964Z" agent="5.0 (Macintosh; Intel Mac OS X 10_15_7) AppleWebKit/605.1.15 (KHTML, like Gecko) Version/15.2 Safari/605.1.15" etag="doZPmgIUl9-EESizn-Os" version="16.2.7" type="github">
  <diagram name="Page-1" id="e3a06f82-3646-2815-327d-82caf3d4e204">
    <mxGraphModel dx="1864" dy="1179" grid="1" gridSize="10" guides="1" tooltips="1" connect="1" arrows="1" fold="1" page="1" pageScale="1.5" pageWidth="1169" pageHeight="826" background="none" math="0" shadow="0">
      <root>
        <mxCell id="0" style=";html=1;" />
        <mxCell id="1" style=";html=1;" parent="0" />
        <mxCell id="6a7d8f32e03d9370-61" value="Intranet" style="whiteSpace=wrap;html=1;fillColor=#f8cecc;fontSize=14;strokeColor=none;verticalAlign=top;" parent="1" vertex="1">
          <mxGeometry x="950" y="130" width="493" height="360" as="geometry" />
        </mxCell>
        <mxCell id="6a7d8f32e03d9370-57" value="Window server" style="whiteSpace=wrap;html=1;fillColor=#FFD470;gradientColor=none;fontSize=14;strokeColor=none;verticalAlign=top;" parent="1" vertex="1">
          <mxGeometry x="90" y="79.75" width="451" height="680" as="geometry" />
        </mxCell>
        <mxCell id="6a7d8f32e03d9370-53" style="edgeStyle=none;rounded=0;html=1;startSize=10;endSize=10;jettySize=auto;orthogonalLoop=1;fontSize=14;endArrow=none;endFill=0;strokeWidth=2;entryX=0;entryY=0.25;entryDx=0;entryDy=0;exitX=1;exitY=0.75;exitDx=0;exitDy=0;" parent="1" source="VW5I2Nq3GzxUJWkYDi5d-22" target="VW5I2Nq3GzxUJWkYDi5d-24" edge="1">
          <mxGeometry relative="1" as="geometry" />
        </mxCell>
        <mxCell id="6a7d8f32e03d9370-54" style="edgeStyle=none;rounded=0;html=1;startSize=10;endSize=10;jettySize=auto;orthogonalLoop=1;fontSize=14;endArrow=none;endFill=0;strokeWidth=2;entryX=0;entryY=0.75;entryDx=0;entryDy=0;exitX=1;exitY=0.5;exitDx=0;exitDy=0;" parent="1" source="VW5I2Nq3GzxUJWkYDi5d-22" target="VW5I2Nq3GzxUJWkYDi5d-25" edge="1">
          <mxGeometry relative="1" as="geometry" />
        </mxCell>
        <mxCell id="6a7d8f32e03d9370-55" style="edgeStyle=none;rounded=0;html=1;startSize=10;endSize=10;jettySize=auto;orthogonalLoop=1;fontSize=14;endArrow=none;endFill=0;strokeWidth=2;entryX=0;entryY=0.75;entryDx=0;entryDy=0;exitX=1;exitY=0.25;exitDx=0;exitDy=0;" parent="1" source="VW5I2Nq3GzxUJWkYDi5d-22" target="VW5I2Nq3GzxUJWkYDi5d-23" edge="1">
          <mxGeometry relative="1" as="geometry" />
        </mxCell>
        <mxCell id="6a7d8f32e03d9370-62" value="My side project" style="text;strokeColor=none;fillColor=none;html=1;fontSize=24;fontStyle=1;verticalAlign=middle;align=center;" parent="1" vertex="1">
          <mxGeometry x="499" y="30" width="861" height="40" as="geometry" />
        </mxCell>
        <mxCell id="VW5I2Nq3GzxUJWkYDi5d-3" value="MYSQL" style="aspect=fixed;perimeter=ellipsePerimeter;html=1;align=center;shadow=0;dashed=0;spacingTop=3;image;image=img/lib/active_directory/database.svg;" vertex="1" parent="1">
          <mxGeometry x="120" y="296.25" width="92.57" height="68.5" as="geometry" />
        </mxCell>
        <mxCell id="VW5I2Nq3GzxUJWkYDi5d-5" value="" style="endArrow=none;html=1;rounded=0;exitX=1;exitY=0;exitDx=0;exitDy=0;entryX=0;entryY=0.5;entryDx=0;entryDy=0;" edge="1" parent="1" source="VW5I2Nq3GzxUJWkYDi5d-3" target="VW5I2Nq3GzxUJWkYDi5d-13">
          <mxGeometry width="50" height="50" relative="1" as="geometry">
            <mxPoint x="-43.22" y="254.75" as="sourcePoint" />
            <mxPoint x="286" y="221.27658023518416" as="targetPoint" />
          </mxGeometry>
        </mxCell>
        <mxCell id="VW5I2Nq3GzxUJWkYDi5d-7" value="" style="endArrow=none;html=1;rounded=0;entryX=1;entryY=1;entryDx=0;entryDy=0;exitX=0;exitY=0.5;exitDx=0;exitDy=0;" edge="1" parent="1" source="VW5I2Nq3GzxUJWkYDi5d-14" target="VW5I2Nq3GzxUJWkYDi5d-3">
          <mxGeometry width="50" height="50" relative="1" as="geometry">
            <mxPoint x="291" y="415.34429858228077" as="sourcePoint" />
            <mxPoint x="-3.219999999999999" y="504.75" as="targetPoint" />
          </mxGeometry>
        </mxCell>
        <mxCell id="VW5I2Nq3GzxUJWkYDi5d-8" value="BATCH (update project)" style="aspect=fixed;html=1;points=[];align=center;image;fontSize=12;image=img/lib/azure2/compute/Batch_Accounts.svg;" vertex="1" parent="1">
          <mxGeometry x="393" y="650" width="68" height="64" as="geometry" />
        </mxCell>
        <mxCell id="VW5I2Nq3GzxUJWkYDi5d-13" value="PHP Web server" style="aspect=fixed;perimeter=ellipsePerimeter;html=1;align=center;shadow=0;dashed=0;spacingTop=3;image;image=img/lib/active_directory/web_server.svg;" vertex="1" parent="1">
          <mxGeometry x="253" y="161" width="96" height="120" as="geometry" />
        </mxCell>
        <mxCell id="VW5I2Nq3GzxUJWkYDi5d-14" value="Glassfish server" style="aspect=fixed;perimeter=ellipsePerimeter;html=1;align=center;shadow=0;dashed=0;spacingTop=3;image;image=img/lib/active_directory/web_server.svg;" vertex="1" parent="1">
          <mxGeometry x="263.5" y="401" width="96" height="120" as="geometry" />
        </mxCell>
        <mxCell id="VW5I2Nq3GzxUJWkYDi5d-16" value="Stock management system" style="outlineConnect=0;dashed=0;verticalLabelPosition=bottom;verticalAlign=top;align=center;html=1;shape=mxgraph.aws3.android;fillColor=#EE472A;gradientColor=none;" vertex="1" parent="1">
          <mxGeometry x="393" y="376" width="51" height="55.5" as="geometry" />
        </mxCell>
        <mxCell id="VW5I2Nq3GzxUJWkYDi5d-17" value="Quotation management system" style="outlineConnect=0;dashed=0;verticalLabelPosition=bottom;verticalAlign=top;align=center;html=1;shape=mxgraph.aws3.android;fillColor=#EE472A;gradientColor=none;" vertex="1" parent="1">
          <mxGeometry x="393" y="156" width="53" height="52" as="geometry" />
        </mxCell>
        <mxCell id="VW5I2Nq3GzxUJWkYDi5d-18" value="" style="endArrow=none;html=1;rounded=0;entryX=1;entryY=0.25;entryDx=0;entryDy=0;exitX=0;exitY=0.5;exitDx=0;exitDy=0;exitPerimeter=0;" edge="1" parent="1" source="VW5I2Nq3GzxUJWkYDi5d-17" target="VW5I2Nq3GzxUJWkYDi5d-13">
          <mxGeometry width="50" height="50" relative="1" as="geometry">
            <mxPoint x="833" y="451" as="sourcePoint" />
            <mxPoint x="883" y="401" as="targetPoint" />
          </mxGeometry>
        </mxCell>
        <mxCell id="VW5I2Nq3GzxUJWkYDi5d-20" value="" style="endArrow=none;html=1;rounded=0;entryX=1;entryY=0;entryDx=0;entryDy=0;exitX=0;exitY=0.5;exitDx=0;exitDy=0;exitPerimeter=0;" edge="1" parent="1" source="VW5I2Nq3GzxUJWkYDi5d-16" target="VW5I2Nq3GzxUJWkYDi5d-14">
          <mxGeometry width="50" height="50" relative="1" as="geometry">
            <mxPoint x="833" y="451" as="sourcePoint" />
            <mxPoint x="883" y="401" as="targetPoint" />
          </mxGeometry>
        </mxCell>
        <mxCell id="VW5I2Nq3GzxUJWkYDi5d-22" value="" style="image;html=1;image=img/lib/clip_art/networking/Router_Icon_128x128.png" vertex="1" parent="1">
          <mxGeometry x="750" y="370" width="80" height="80" as="geometry" />
        </mxCell>
        <mxCell id="VW5I2Nq3GzxUJWkYDi5d-23" value="Client" style="aspect=fixed;perimeter=ellipsePerimeter;html=1;align=center;shadow=0;dashed=0;spacingTop=3;image;image=img/lib/active_directory/laptop_client.svg;" vertex="1" parent="1">
          <mxGeometry x="1180" y="165" width="72" height="80" as="geometry" />
        </mxCell>
        <mxCell id="VW5I2Nq3GzxUJWkYDi5d-24" value="Client" style="aspect=fixed;perimeter=ellipsePerimeter;html=1;align=center;shadow=0;dashed=0;spacingTop=3;image;image=img/lib/active_directory/laptop_client.svg;" vertex="1" parent="1">
          <mxGeometry x="1176.5" y="379.5" width="72.45" height="80.5" as="geometry" />
        </mxCell>
        <mxCell id="VW5I2Nq3GzxUJWkYDi5d-25" value="Client" style="aspect=fixed;perimeter=ellipsePerimeter;html=1;align=center;shadow=0;dashed=0;spacingTop=3;image;image=img/lib/active_directory/laptop_client.svg;" vertex="1" parent="1">
          <mxGeometry x="1230" y="260" width="72" height="80" as="geometry" />
        </mxCell>
        <mxCell id="VW5I2Nq3GzxUJWkYDi5d-27" value="" style="endArrow=none;html=1;rounded=0;entryX=0;entryY=0.25;entryDx=0;entryDy=0;exitX=1.004;exitY=0.439;exitDx=0;exitDy=0;exitPerimeter=0;startArrow=none;" edge="1" parent="1" source="VW5I2Nq3GzxUJWkYDi5d-32" target="VW5I2Nq3GzxUJWkYDi5d-22">
          <mxGeometry width="50" height="50" relative="1" as="geometry">
            <mxPoint x="920" y="490" as="sourcePoint" />
            <mxPoint x="970" y="440" as="targetPoint" />
          </mxGeometry>
        </mxCell>
        <mxCell id="VW5I2Nq3GzxUJWkYDi5d-29" value="Internet" style="whiteSpace=wrap;html=1;fillColor=#dae8fc;fontSize=14;strokeColor=#6c8ebf;verticalAlign=top;" vertex="1" parent="1">
          <mxGeometry x="960" y="619" width="592.5" height="530" as="geometry" />
        </mxCell>
        <mxCell id="VW5I2Nq3GzxUJWkYDi5d-30" value="" style="image;html=1;image=img/lib/clip_art/networking/Wireless_Router_N_128x128.png" vertex="1" parent="1">
          <mxGeometry x="720" y="675.75" width="80" height="80" as="geometry" />
        </mxCell>
        <mxCell id="VW5I2Nq3GzxUJWkYDi5d-31" value="" style="endArrow=none;html=1;rounded=0;exitX=0.5;exitY=1;exitDx=0;exitDy=0;" edge="1" parent="1" source="VW5I2Nq3GzxUJWkYDi5d-22" target="VW5I2Nq3GzxUJWkYDi5d-30">
          <mxGeometry width="50" height="50" relative="1" as="geometry">
            <mxPoint x="1100" y="520" as="sourcePoint" />
            <mxPoint x="880" y="540" as="targetPoint" />
          </mxGeometry>
        </mxCell>
        <mxCell id="VW5I2Nq3GzxUJWkYDi5d-32" value="" style="image;html=1;image=img/lib/clip_art/networking/Firewall-page1_128x128.png" vertex="1" parent="1">
          <mxGeometry x="620" y="350" width="80" height="80" as="geometry" />
        </mxCell>
        <mxCell id="VW5I2Nq3GzxUJWkYDi5d-33" value="" style="endArrow=none;html=1;rounded=0;entryX=0;entryY=0.5;entryDx=0;entryDy=0;exitX=1.004;exitY=0.439;exitDx=0;exitDy=0;exitPerimeter=0;" edge="1" parent="1" source="6a7d8f32e03d9370-57" target="VW5I2Nq3GzxUJWkYDi5d-32">
          <mxGeometry width="50" height="50" relative="1" as="geometry">
            <mxPoint x="625.8039999999996" y="378.02" as="sourcePoint" />
            <mxPoint x="750" y="390" as="targetPoint" />
          </mxGeometry>
        </mxCell>
        <mxCell id="VW5I2Nq3GzxUJWkYDi5d-34" value="" style="image;html=1;image=img/lib/clip_art/networking/Firewall_128x128.png" vertex="1" parent="1">
          <mxGeometry x="740" y="521" width="80" height="80" as="geometry" />
        </mxCell>
        <mxCell id="VW5I2Nq3GzxUJWkYDi5d-35" value="PHP Web server" style="aspect=fixed;perimeter=ellipsePerimeter;html=1;align=center;shadow=0;dashed=0;spacingTop=3;image;image=img/lib/active_directory/web_server.svg;" vertex="1" parent="1">
          <mxGeometry x="1184" y="690" width="96" height="120" as="geometry" />
        </mxCell>
        <mxCell id="VW5I2Nq3GzxUJWkYDi5d-36" value="shopping online&lt;br&gt;http://sirichaielectric.com" style="outlineConnect=0;dashed=0;verticalLabelPosition=bottom;verticalAlign=top;align=center;html=1;shape=mxgraph.aws3.android;fillColor=#EE472A;gradientColor=none;" vertex="1" parent="1">
          <mxGeometry x="1090.5" y="830" width="51" height="55.5" as="geometry" />
        </mxCell>
        <mxCell id="VW5I2Nq3GzxUJWkYDi5d-37" value="" style="endArrow=none;html=1;rounded=0;entryX=0;entryY=0.5;entryDx=0;entryDy=0;exitX=1;exitY=0.5;exitDx=0;exitDy=0;exitPerimeter=0;" edge="1" parent="1" source="VW5I2Nq3GzxUJWkYDi5d-36" target="VW5I2Nq3GzxUJWkYDi5d-35">
          <mxGeometry width="50" height="50" relative="1" as="geometry">
            <mxPoint x="840" y="760" as="sourcePoint" />
            <mxPoint x="890" y="710" as="targetPoint" />
          </mxGeometry>
        </mxCell>
        <mxCell id="VW5I2Nq3GzxUJWkYDi5d-38" value="MYSQL" style="aspect=fixed;perimeter=ellipsePerimeter;html=1;align=center;shadow=0;dashed=0;spacingTop=3;image;image=img/lib/active_directory/database.svg;" vertex="1" parent="1">
          <mxGeometry x="1320" y="677.75" width="65.54" height="48.5" as="geometry" />
        </mxCell>
        <mxCell id="VW5I2Nq3GzxUJWkYDi5d-39" value="" style="endArrow=none;html=1;rounded=0;exitX=0;exitY=0.75;exitDx=0;exitDy=0;" edge="1" parent="1" source="VW5I2Nq3GzxUJWkYDi5d-38" target="VW5I2Nq3GzxUJWkYDi5d-35">
          <mxGeometry width="50" height="50" relative="1" as="geometry">
            <mxPoint x="407" y="503" as="sourcePoint" />
            <mxPoint x="359.1339847144118" y="517.4431103634759" as="targetPoint" />
          </mxGeometry>
        </mxCell>
        <mxCell id="VW5I2Nq3GzxUJWkYDi5d-41" value="Client" style="aspect=fixed;perimeter=ellipsePerimeter;html=1;align=center;shadow=0;dashed=0;spacingTop=3;image;image=img/lib/active_directory/laptop_client.svg;" vertex="1" parent="1">
          <mxGeometry x="1080" y="990" width="72" height="80" as="geometry" />
        </mxCell>
        <mxCell id="VW5I2Nq3GzxUJWkYDi5d-42" value="Client" style="aspect=fixed;perimeter=ellipsePerimeter;html=1;align=center;shadow=0;dashed=0;spacingTop=3;image;image=img/lib/active_directory/laptop_client.svg;" vertex="1" parent="1">
          <mxGeometry x="1130" y="1030" width="72" height="80" as="geometry" />
        </mxCell>
        <mxCell id="VW5I2Nq3GzxUJWkYDi5d-44" value="Client" style="aspect=fixed;perimeter=ellipsePerimeter;html=1;align=center;shadow=0;dashed=0;spacingTop=3;image;image=img/lib/active_directory/laptop_client.svg;" vertex="1" parent="1">
          <mxGeometry x="1196" y="990" width="72" height="80" as="geometry" />
        </mxCell>
        <mxCell id="VW5I2Nq3GzxUJWkYDi5d-45" value="" style="endArrow=none;html=1;rounded=0;entryX=0.5;entryY=1;entryDx=0;entryDy=0;entryPerimeter=0;exitX=0.5;exitY=0;exitDx=0;exitDy=0;" edge="1" parent="1" source="VW5I2Nq3GzxUJWkYDi5d-42" target="VW5I2Nq3GzxUJWkYDi5d-36">
          <mxGeometry width="50" height="50" relative="1" as="geometry">
            <mxPoint x="790" y="630" as="sourcePoint" />
            <mxPoint x="840" y="580" as="targetPoint" />
          </mxGeometry>
        </mxCell>
        <mxCell id="VW5I2Nq3GzxUJWkYDi5d-46" value="" style="endArrow=none;html=1;rounded=0;entryX=0.5;entryY=1;entryDx=0;entryDy=0;entryPerimeter=0;exitX=0.5;exitY=0;exitDx=0;exitDy=0;" edge="1" parent="1" source="VW5I2Nq3GzxUJWkYDi5d-44" target="VW5I2Nq3GzxUJWkYDi5d-36">
          <mxGeometry width="50" height="50" relative="1" as="geometry">
            <mxPoint x="790" y="630" as="sourcePoint" />
            <mxPoint x="840" y="580" as="targetPoint" />
          </mxGeometry>
        </mxCell>
        <mxCell id="VW5I2Nq3GzxUJWkYDi5d-47" value="" style="endArrow=none;html=1;rounded=0;entryX=0.5;entryY=1;entryDx=0;entryDy=0;entryPerimeter=0;exitX=0.5;exitY=0;exitDx=0;exitDy=0;" edge="1" parent="1" source="VW5I2Nq3GzxUJWkYDi5d-41" target="VW5I2Nq3GzxUJWkYDi5d-36">
          <mxGeometry width="50" height="50" relative="1" as="geometry">
            <mxPoint x="790" y="630" as="sourcePoint" />
            <mxPoint x="840" y="580" as="targetPoint" />
          </mxGeometry>
        </mxCell>
        <mxCell id="VW5I2Nq3GzxUJWkYDi5d-48" value="API gateway" style="outlineConnect=0;dashed=0;verticalLabelPosition=bottom;verticalAlign=top;align=center;html=1;shape=mxgraph.aws3.android;fillColor=#EE472A;gradientColor=none;" vertex="1" parent="1">
          <mxGeometry x="1090.5" y="704.25" width="51" height="55.5" as="geometry" />
        </mxCell>
        <mxCell id="VW5I2Nq3GzxUJWkYDi5d-49" value="" style="endArrow=none;html=1;rounded=0;entryX=1;entryY=0.5;entryDx=0;entryDy=0;entryPerimeter=0;exitX=0;exitY=0.25;exitDx=0;exitDy=0;" edge="1" parent="1" source="VW5I2Nq3GzxUJWkYDi5d-35" target="VW5I2Nq3GzxUJWkYDi5d-48">
          <mxGeometry width="50" height="50" relative="1" as="geometry">
            <mxPoint x="790" y="630" as="sourcePoint" />
            <mxPoint x="840" y="580" as="targetPoint" />
          </mxGeometry>
        </mxCell>
        <mxCell id="VW5I2Nq3GzxUJWkYDi5d-50" value="" style="endArrow=none;html=1;rounded=0;entryX=0;entryY=0.5;entryDx=0;entryDy=0;exitX=1;exitY=1;exitDx=0;exitDy=0;" edge="1" parent="1" source="VW5I2Nq3GzxUJWkYDi5d-30" target="VW5I2Nq3GzxUJWkYDi5d-29">
          <mxGeometry width="50" height="50" relative="1" as="geometry">
            <mxPoint x="790" y="680" as="sourcePoint" />
            <mxPoint x="840" y="630" as="targetPoint" />
          </mxGeometry>
        </mxCell>
        <mxCell id="VW5I2Nq3GzxUJWkYDi5d-58" value="payment gateway" style="strokeColor=#dddddd;shadow=1;strokeWidth=1;rounded=1;absoluteArcSize=1;arcSize=2;labelPosition=center;verticalLabelPosition=middle;align=center;verticalAlign=bottom;spacingLeft=0;fontColor=#999999;fontSize=12;whiteSpace=wrap;spacingBottom=2;labelBackgroundColor=#BAFF19;" vertex="1" parent="1">
          <mxGeometry x="1300" y="870" width="70" height="85" as="geometry" />
        </mxCell>
        <mxCell id="VW5I2Nq3GzxUJWkYDi5d-59" value="" style="sketch=0;dashed=0;connectable=0;html=1;fillColor=#757575;strokeColor=none;shape=mxgraph.gcp2.payment;part=1;labelBackgroundColor=#BAFF19;" vertex="1" parent="VW5I2Nq3GzxUJWkYDi5d-58">
          <mxGeometry x="0.5" width="50" height="40" relative="1" as="geometry">
            <mxPoint x="-25" y="15" as="offset" />
          </mxGeometry>
        </mxCell>
        <mxCell id="VW5I2Nq3GzxUJWkYDi5d-60" value="" style="endArrow=none;html=1;rounded=0;entryX=0;entryY=0.25;entryDx=0;entryDy=0;exitX=1;exitY=0.75;exitDx=0;exitDy=0;exitPerimeter=0;" edge="1" parent="1" source="VW5I2Nq3GzxUJWkYDi5d-36" target="VW5I2Nq3GzxUJWkYDi5d-58">
          <mxGeometry width="50" height="50" relative="1" as="geometry">
            <mxPoint x="740" y="640" as="sourcePoint" />
            <mxPoint x="790" y="590" as="targetPoint" />
          </mxGeometry>
        </mxCell>
      </root>
    </mxGraphModel>
  </diagram>
</mxfile>
